<svg xmlns="http://www.w3.org/2000/svg"
 xmlns:xlink="http://www.w3.org/1999/xlink"
 width="29px" height="21px"  viewBox="0 0 29 21">
<path fill-rule="evenodd"  fill="#000000"
 d="M18.901794,9.759888 C18.901794,9.759888 27.628174,2.5162354 27.628174,2.5162354 C27.628174,2.5162354 27.628174,19.963745 27.628174,19.963745 C27.628174,19.963745 18.901794,9.759888 18.901794,9.759888 ZM1.4373779,1.5960693 C1.4373779,1.5960693 27.562866,1.5960693 27.562866,1.5960693 C27.562866,1.5960693 14.500244,12.364868 14.500244,12.364868 C14.500244,12.364868 1.4373779,1.5960693 1.4373779,1.5960693 ZM14.497009,13.418701 C14.497009,13.418701 18.32837,10.244995 18.32837,10.244995 C18.32837,10.244995 26.652832,19.973145 26.652832,19.973145 C26.652832,19.973145 2.3476562,19.973145 2.3476562,19.973145 C2.3476562,19.973145 10.671814,10.340698 10.671814,10.340698 C10.671814,10.340698 14.497009,13.418701 14.497009,13.418701 ZM10.063904,9.759888 C10.063904,9.759888 1.3375854,2.5162354 1.3375854,2.5162354 C1.3375854,2.5162354 1.3375854,19.963745 1.3375854,19.963745 C1.3375854,19.963745 10.063904,9.759888 10.063904,9.759888 Z"/>
</svg>