<?xml version="1.0" encoding="utf-8"?>
<!-- Generator: Adobe Illustrator 22.1.0, SVG Export Plug-In . SVG Version: 6.00 Build 0)  -->
<svg version="1.1" id="Слой_1" xmlns="http://www.w3.org/2000/svg" xmlns:xlink="http://www.w3.org/1999/xlink" x="0px" y="0px"
	 viewBox="0 0 113.4 113.4" style="enable-background:new 0 0 113.4 113.4;" xml:space="preserve">
<style type="text/css">
	.st0{fill-rule:evenodd;clip-rule:evenodd;fill:#0B64A8;}
</style>
<path class="st0" d="M39,60c2.3-0.5,5.4,0.8,6.1,2c0.3,0.5,0,1.1,0.3,1.4c0,0,0,0,0.1,0c0.3-0.2,0.5-0.6,0.6-1
	c0.1,0.4,0.1,0.8,0,1.2c0.5,0.2,1.1,0.3,1.5,0.5c0.3,0.1,0.8,0.1,1.1,0.2c0.4,0.2,0.6,0.4,0.7,0.6c0,0,0,0.2,0,0.3
	c-0.2,0.4-0.5,0.6-0.6,0.9c0,0.4,0.5,0.6,0.7,0.8c0.1,0.1,0.2,0.3,0.2,0.6c0,0.1-0.1,0.1-0.1,0.2c0.2,0,0.4,0.2,0.6,0.3
	c0.2,0.3-0.1,0.4-0.2,0.5c-0.1,0.2-0.1,0.4,0.4,0.7c0.5,0.4,0.6,0.8,0.7,1.3c-0.2,0.9-0.8,1.1-1.5,1.3c-2.7,0.8-4.7,1.4-5.2,4.6
	c-2.6-1.1,1.4-7.3-0.8-11.8C42.6,62.5,40.9,60.6,39,60 M38.1,61.5c4.2,2.3,4.1,5.7,3.8,8.6c-0.2,2.1-0.7,3.7,0.5,5.4
	c-2.2-0.8-2.9-2.8-2.6-6.6C40,66.2,38.7,63.1,38.1,61.5z M71,63.6c-0.2-0.3-0.7-0.9-1.4-1.7c-0.3,1.2-2,4.4-1.4,6.7
	C68.8,67,69.3,65.1,71,63.6z M67.7,51.7c1.3,2.1-1.1,2.8-1.8,5c0,1.3,0.3,1.8,0.8,2.4c1.1,1,0,3.6-0.3,4.9c-0.5,2.2-0.4,4.4,0,6.6
	c0.1,0.7,0.3,1.3,0.6,2.1c0.1,0.2,0.2,1.1,1.8,0.9c0.1-0.1,0.6-0.2,0.5-0.6c-0.1-0.2-0.7-0.4-0.6-0.5c-0.2-0.4-0.1-0.8-0.1-1.3
	c0.2-2.8,3.8-5.9,4.8-7.7c0.1-0.2-2.6-4.5-2.7-5.7c-0.3-2.2,0.2-4.1,0.4-6.3c0.1-0.8,1.6-1.9,0.9-2.8c-1.2-0.5-4.4-1.1-3.5-2.3
	c0.9-1.2,2.4,0.5,2.4-2.4c-0.5-0.2-0.4-1.4-0.4-1.8c-0.1-1.1-1.6-1-1.6-1c-3.8-0.8-3.9,6.7-4.6,9c-0.4,1.4-1,2.4-1,2.7
	c0.3,0.6,0.9,0.3,1.7-0.2c-0.3,0.6-0.7,1-0.9,1.6c-0.4,1.1-0.6,1.9-0.6,2.7c0,0.2-0.2,0.7-0.4,1c-0.3,0.5-0.6,0.9-0.8,1.4
	c-0.1,0.2-0.1,0.7,0,0.8c0.1,0.1,0.2,0.3,0.7-0.4c-0.1,0.1,0.4-0.7,0.3-0.3c0,0.2,0,0.5,0.3,0.1c0.2-0.2,0.2-0.5,0.4-0.9
	c0.1-0.5,0.2-1,0.4-1.5c0.7-1.5,1.8-3.3,1.9-4.4c0-0.6,0.1-1,0.2-1.3C67,51.5,67.5,51.3,67.7,51.7z M61.2,72.5c0,0.2,0,0.3,0,0.5
	v4.3c0,1.7,1.3,3,3,3h7.5c1.6,0,3-1.3,3-3v-4.3c0-0.2,0-0.3,0-0.5c1.4-2.3,1.2-3.3,1.8-7.4c0.8-5,1.5-9.9,2.3-14.9
	c1.7-11.2,4.3-10.9-6-10.9c-1.6,0-3.2,0-4.8,0c-1.6,0-3.2,0-4.8,0c-10.3,0-7.7-0.3-6,10.9c0.8,5,1.5,9.9,2.3,14.9
	C60,69.1,59.8,70.1,61.2,72.5z M42.8,33.1h2.4c0.7,0,1.2,0.6,1.2,1.3v3.7c0.7,0.7,1.1,1.9,2.2,3.8c2.6,4.6,2.2,4.8,2.9,10.3
	c0.7,5.4,1.3,10.8,2,16.1c1.5,12.1,3.8,11.8-5.3,11.8c-1.4,0-2.8,0-4.2,0c-1.4,0-2.8,0-4.2,0c-9,0-6.8,0.3-5.3-11.8
	c0.7-5.4,1.3-10.8,2-16.1c0.7-5.5,0.3-5.8,2.9-10.3c1.1-2,1.4-3.2,2.2-3.8v-3.7C41.6,33.7,42.1,33.1,42.8,33.1z M56.7,14.2
	c23.5,0,42.5,19,42.5,42.5c0,23.5-19,42.5-42.5,42.5c-23.5,0-42.5-19-42.5-42.5C14.2,33.2,33.2,14.2,56.7,14.2z"/>
</svg>
