<?xml version="1.0" encoding="utf-8"?>
<!-- Generator: Adobe Illustrator 22.1.0, SVG Export Plug-In . SVG Version: 6.00 Build 0)  -->
<svg version="1.1" id="Слой_1" xmlns="http://www.w3.org/2000/svg" xmlns:xlink="http://www.w3.org/1999/xlink" x="0px" y="0px"
	 viewBox="0 0 113.4 113.4" style="enable-background:new 0 0 113.4 113.4;" xml:space="preserve">
<style type="text/css">
	.st0{fill:#0B64A8;}
</style>
<path class="st0" d="M84.2,29.2c-7-7-16.8-11.4-27.5-11.4s-20.5,4.4-27.5,11.4c-7,7-11.4,16.8-11.4,27.5s4.4,20.5,11.4,27.5
	c7,7,16.8,11.4,27.5,11.4s20.5-4.4,27.5-11.4c7-7,11.4-16.8,11.4-27.5S91.3,36.2,84.2,29.2 M36.3,36.1c14.5,8.1,14.3,19.8,13.1,30
	C48.7,73.3,47.1,79,51.3,85c-7.5-2.8-10.3-9.6-9.2-23C42.9,52.5,38.4,41.6,36.3,36.1z M39.3,30.7c8.1-1.9,18.8,2.8,21.2,7
	c0.9,1.6-0.1,4,1.2,4.7c0.1,0,0.2,0.1,0.2,0.1c1.1-0.8,1.7-2.1,1.9-3.5c0.2,1.4,0.3,3-0.1,4.3c1.7,0.6,3.7,1.2,5.2,1.6
	c1.2,0.4,3,0.5,4,0.8c1.6,0.6,2.2,1.4,2.3,2.2c-0.1,0.2-0.1,0.8-0.1,0.9c-0.7,1.5-1.9,2.2-2,3.3c-0.1,1.3,1.6,2.1,2.6,2.6
	c0.5,0.2,0.7,1,0.8,2c-0.1,0.2-0.3,0.4-0.4,0.7c0.7,0.2,1.5,0.6,1.9,1.2c0.6,0.9-0.2,1.3-0.5,1.8C77,61.1,77,61.8,78.7,63
	c1.7,1.3,2.2,2.8,2.4,4.4c-0.8,3-2.9,3.9-5.3,4.4c-9.3,2.9-16.5,4.7-18,16.1c-8.9-3.8,4.8-25.5-2.6-41.1
	C51.8,39.7,46,32.7,39.3,30.7z M56.7,14.2c11.7,0,22.4,4.8,30.1,12.5c7.7,7.7,12.5,18.3,12.5,30.1s-4.8,22.4-12.5,30.1
	c-7.7,7.7-18.3,12.5-30.1,12.5s-22.4-4.8-30.1-12.5c-7.7-7.7-12.5-18.3-12.5-30.1s4.8-22.4,12.5-30.1C34.3,18.9,45,14.2,56.7,14.2z"
	/>
</svg>
